<svg width="16" height="16" viewBox="0 0 16 16" fill="none" xmlns="http://www.w3.org/2000/svg">
<path d="M7.99992 13.3334C9.41441 13.3334 10.771 12.7715 11.7712 11.7713C12.7713 10.7711 13.3333 9.41453 13.3333 8.00004C13.3333 6.58555 12.7713 5.229 11.7712 4.2288C10.771 3.22861 9.41441 2.66671 7.99992 2.66671C6.58543 2.66671 5.22888 3.22861 4.22868 4.2288C3.22849 5.229 2.66659 6.58555 2.66659 8.00004C2.66659 9.41453 3.22849 10.7711 4.22868 11.7713C5.22888 12.7715 6.58543 13.3334 7.99992 13.3334ZM7.99992 1.33337C8.8754 1.33337 9.7423 1.50581 10.5511 1.84084C11.36 2.17588 12.0949 2.66694 12.714 3.286C13.333 3.90505 13.8241 4.63998 14.1591 5.44882C14.4941 6.25765 14.6666 7.12456 14.6666 8.00004C14.6666 9.76815 13.9642 11.4638 12.714 12.7141C11.4637 13.9643 9.76803 14.6667 7.99992 14.6667C4.31325 14.6667 1.33325 11.6667 1.33325 8.00004C1.33325 6.23193 2.03563 4.53624 3.28587 3.286C4.53612 2.03575 6.23181 1.33337 7.99992 1.33337ZM8.33325 4.66671V8.16671L11.3333 9.94671L10.8333 10.7667L7.33325 8.66671V4.66671H8.33325Z" fill="#9747FF"/>
</svg>
