<svg width="25" height="25" viewBox="0 0 25 25" fill="none" xmlns="http://www.w3.org/2000/svg">
<path d="M20.7205 7.1438L17.908 4.3313C17.5564 3.97974 17.0291 3.97974 16.7126 4.3313C16.4666 4.54224 16.4314 4.85864 16.5017 5.13989L13.7947 7.84692C12.072 7.35474 10.1736 7.81177 8.90796 9.11255L3.84546 14.2102C3.28296 14.7375 3.00171 15.4758 3.00171 16.2493C3.00171 17.0227 3.28296 17.761 3.84546 18.3235L6.72827 21.2063C7.29077 21.7688 8.02905 22.05 8.80249 22.05C9.57593 22.05 10.3142 21.7688 10.8416 21.2063L15.9392 16.1086C17.24 14.843 17.697 12.9446 17.2048 11.2219L19.9119 8.51489C19.9822 8.55005 20.0525 8.55005 20.158 8.55005C20.3689 8.55005 20.5798 8.47974 20.7205 8.30396C21.072 7.98755 21.072 7.46021 20.7205 7.1438ZM7.92358 20.011L5.04077 17.1282C4.79468 16.8821 4.68921 16.5657 4.68921 16.2493C4.68921 15.9329 4.79468 15.6165 5.04077 15.4055L5.7439 14.7024L10.3494 19.3079L9.64624 20.011C9.18921 20.468 8.38062 20.468 7.92358 20.011ZM15.2361 10.8L15.447 11.3274C15.9744 12.5579 15.6931 13.9993 14.7439 14.9133L14.2869 15.3704L9.6814 10.7649L10.1384 10.3079C11.0525 9.35864 12.4939 9.07739 13.7244 9.60474L14.2166 9.81567L17.6267 6.40552L18.6111 7.42505L15.2361 10.8Z" fill="#990D23"/>
</svg>
