<svg width="25" height="25" viewBox="0 0 25 25" fill="none" xmlns="http://www.w3.org/2000/svg">
<path d="M15.7621 20.3625H13.477V16.3547C15.7621 15.9329 17.4145 13.8586 17.0981 11.5383L16.1488 5.03442C16.0785 4.47192 15.6215 4.05005 15.059 4.05005H10.2426C9.71524 4.05005 9.22305 4.47192 9.15274 5.03442L8.20352 11.5383C7.88712 13.8586 9.53946 15.9329 11.7895 16.3547V20.3625H9.57462C9.08243 20.3625 8.73087 20.7493 8.73087 21.2063C8.73087 21.6985 9.08243 22.05 9.57462 22.05H15.7621C16.2191 22.05 16.5707 21.6985 16.5707 21.2063C16.6059 20.7493 16.2191 20.3625 15.7621 20.3625ZM14.5668 5.73755L14.9887 8.55005H10.3129L10.7348 5.73755H14.5668ZM9.85587 11.7844L10.0668 10.2375H15.2348L15.4457 11.7493C15.5863 12.8743 14.7074 14.7375 12.6684 14.7375C10.6293 14.7375 9.71524 12.8743 9.85587 11.7844Z" fill="#990D23"/>
</svg>
