<svg width="24" height="19" viewBox="0 0 24 19" fill="none" xmlns="http://www.w3.org/2000/svg">
<path d="M6.93921 2.30005H9.18921V0.893799C9.18921 0.436768 9.54077 0.0500488 10.033 0.0500488C10.49 0.0500488 10.8767 0.436768 10.8767 0.893799V2.30005H13.1267V0.893799C13.1267 0.436768 13.4783 0.0500488 13.9705 0.0500488C14.4275 0.0500488 14.8142 0.436768 14.8142 0.893799V2.30005H17.0642V0.893799C17.0642 0.436768 17.4158 0.0500488 17.908 0.0500488C18.365 0.0500488 18.7517 0.436768 18.7517 0.893799V7.92505H21.5642V6.5188C21.5642 6.06177 21.9158 5.67505 22.408 5.67505C22.865 5.67505 23.2517 6.06177 23.2517 6.5188V15.5188C23.2517 16.925 22.0916 18.05 20.7205 18.05H3.28296C1.87671 18.05 0.751709 16.925 0.751709 15.5188V6.5188C0.751709 6.06177 1.10327 5.67505 1.59546 5.67505C2.05249 5.67505 2.43921 6.06177 2.43921 6.5188V7.92505H5.25171V0.893799C5.25171 0.436768 5.60327 0.0500488 6.09546 0.0500488C6.55249 0.0500488 6.93921 0.436768 6.93921 0.893799V2.30005ZM6.93921 3.98755V7.92505H17.0642V3.98755H6.93921ZM2.43921 9.61255V15.5188C2.43921 16.011 2.79077 16.3625 3.28296 16.3625H9.75171V13.55C9.75171 12.3196 10.7361 11.3 12.0017 11.3C13.2322 11.3 14.2517 12.3196 14.2517 13.55V16.3625H20.7205C21.1775 16.3625 21.5642 16.011 21.5642 15.5188V9.61255H2.43921Z" fill="#990D23"/>
</svg>
