<svg width="25" height="25" viewBox="0 0 25 25" fill="none" xmlns="http://www.w3.org/2000/svg">
<path d="M19.1371 6.5813C18.7856 6.22974 18.2582 6.22974 17.9418 6.5813L6.1293 18.3938C5.77774 18.7102 5.77774 19.2375 6.1293 19.554C6.30508 19.7297 6.51602 19.8 6.76212 19.8C6.97305 19.8 7.18399 19.7297 7.32462 19.554L19.1371 7.74146C19.4887 7.42505 19.4887 6.89771 19.1371 6.5813ZM8.16837 10.2375C9.08243 10.2375 9.85587 9.49927 9.85587 8.55005C9.85587 7.63599 9.08243 6.86255 8.16837 6.86255C7.21915 6.86255 6.48087 7.63599 6.48087 8.55005C6.48087 9.49927 7.21915 10.2375 8.16837 10.2375ZM17.1684 15.8625C16.2191 15.8625 15.4809 16.636 15.4809 17.55C15.4809 18.4993 16.2191 19.2375 17.1684 19.2375C18.0824 19.2375 18.8559 18.4993 18.8559 17.55C18.8559 16.636 18.0824 15.8625 17.1684 15.8625Z" fill="#990D23"/>
</svg>
