<svg width="25" height="25" viewBox="0 0 25 25" fill="none" xmlns="http://www.w3.org/2000/svg">
<path d="M15.4809 10.8C15.4809 12.3821 14.2152 13.6125 12.6684 13.6125C11.0863 13.6125 9.85587 12.3821 9.85587 10.8C9.85587 9.25317 11.0863 7.98755 12.6684 7.98755C14.2152 7.98755 15.4809 9.25317 15.4809 10.8ZM12.6684 9.67505C12.0356 9.67505 11.5434 10.2024 11.5434 10.8C11.5434 11.4329 12.0356 11.925 12.6684 11.925C13.266 11.925 13.7934 11.4329 13.7934 10.8C13.7934 10.2024 13.266 9.67505 12.6684 9.67505ZM19.4184 10.8C19.4184 13.8938 15.3051 19.343 13.477 21.6282C13.0551 22.1555 12.2465 22.1555 11.8246 21.6282C9.99649 19.343 5.91837 13.8938 5.91837 10.8C5.91837 7.07349 8.90665 4.05005 12.6684 4.05005C16.3949 4.05005 19.4184 7.07349 19.4184 10.8ZM12.6684 5.73755C9.85587 5.73755 7.60587 8.02271 7.60587 10.8C7.60587 11.2571 7.74649 11.925 8.13321 12.8391C8.48477 13.6829 9.01212 14.6672 9.60977 15.6516C10.6293 17.2688 11.7895 18.8157 12.6684 19.9407C13.5121 18.8157 14.6723 17.2688 15.6918 15.6516C16.2895 14.6672 16.8168 13.6829 17.1684 12.8391C17.5551 11.925 17.7309 11.2571 17.7309 10.8C17.7309 8.02271 15.4457 5.73755 12.6684 5.73755Z" fill="#990D23"/>
</svg>
