<svg width="32" height="32" viewBox="0 0 40 40" fill="none" xmlns="http://www.w3.org/2000/svg"><rect x="0.5" y="0.5" width="39" height="39" rx="7.5" fill="white"></rect><rect x="0.5" y="0.5" width="39" height="39" rx="7.5" stroke="#D4D4D4"></rect><path d="M17 19.25H11.75C10.5095 19.25 9.5 18.2405 9.5 17V11.75C9.5 10.5095 10.5095 9.5 11.75 9.5H17C18.2405 9.5 19.25 10.5095 19.25 11.75V17C19.25 18.2405 18.2405 19.25 17 19.25ZM11.75 11C11.3368 11 11 11.3368 11 11.75V17C11 17.4132 11.3368 17.75 11.75 17.75H17C17.4132 17.75 17.75 17.4132 17.75 17V11.75C17.75 11.3368 17.4132 11 17 11H11.75ZM17 30.5H11.75C10.5095 30.5 9.5 29.4905 9.5 28.25V23C9.5 21.7595 10.5095 20.75 11.75 20.75H17C18.2405 20.75 19.25 21.7595 19.25 23V28.25C19.25 29.4905 18.2405 30.5 17 30.5ZM11.75 22.25C11.3368 22.25 11 22.5868 11 23V28.25C11 28.6632 11.3368 29 11.75 29H17C17.4132 29 17.75 28.6632 17.75 28.25V23C17.75 22.5868 17.4132 22.25 17 22.25H11.75ZM28.25 19.25H23C21.7595 19.25 20.75 18.2405 20.75 17V11.75C20.75 10.5095 21.7595 9.5 23 9.5H28.25C29.4905 9.5 30.5 10.5095 30.5 11.75V17C30.5 18.2405 29.4905 19.25 28.25 19.25ZM23 11C22.5868 11 22.25 11.3368 22.25 11.75V17C22.25 17.4132 22.5868 17.75 23 17.75H28.25C28.6632 17.75 29 17.4132 29 17V11.75C29 11.3368 28.6632 11 28.25 11H23ZM14.75 16.25H14C13.1727 16.25 12.5 15.5773 12.5 14.75V14C12.5 13.1727 13.1727 12.5 14 12.5H14.75C15.5773 12.5 16.25 13.1727 16.25 14V14.75C16.25 15.5773 15.5773 16.25 14.75 16.25ZM14 14V14.75H14.7508V14H14ZM14.75 27.5H14C13.1727 27.5 12.5 26.8272 12.5 26V25.25C12.5 24.4227 13.1727 23.75 14 23.75H14.75C15.5773 23.75 16.25 24.4227 16.25 25.25V26C16.25 26.8272 15.5773 27.5 14.75 27.5ZM14 25.25V26H14.7508V25.25H14ZM26 16.25H25.25C24.4227 16.25 23.75 15.5773 23.75 14.75V14C23.75 13.1727 24.4227 12.5 25.25 12.5H26C26.8272 12.5 27.5 13.1727 27.5 14V14.75C27.5 15.5773 26.8272 16.25 26 16.25ZM25.25 14V14.75H26.0007V14H25.25Z" fill="#232323"></path><path d="M21.5 27.5C21.3011 27.5 21.1103 27.421 20.9697 27.2803C20.829 27.1397 20.75 26.9489 20.75 26.75V23C20.75 22.1727 21.4227 21.5 22.25 21.5H24.5C24.6989 21.5 24.8897 21.579 25.0303 21.7197C25.171 21.8603 25.25 22.0511 25.25 22.25C25.25 22.4489 25.171 22.6397 25.0303 22.7803C24.8897 22.921 24.6989 23 24.5 23H22.25V26.75C22.25 26.9489 22.171 27.1397 22.0303 27.2803C21.8897 27.421 21.6989 27.5 21.5 27.5ZM27.5 27.5C27.5 27.3011 27.421 27.1103 27.2803 26.9697C27.1397 26.829 26.9489 26.75 26.75 26.75H25.25V25.25C25.25 25.0511 25.171 24.8603 25.0303 24.7197C24.8897 24.579 24.6989 24.5 24.5 24.5C24.3011 24.5 24.1103 24.579 23.9697 24.7197C23.829 24.8603 23.75 25.0511 23.75 25.25V27.5C23.75 27.6989 23.829 27.8897 23.9697 28.0303C24.1103 28.171 24.3011 28.25 24.5 28.25H26.75C26.9489 28.25 27.1397 28.171 27.2803 28.0303C27.421 27.8897 27.5 27.6989 27.5 27.5ZM30.5 22.25C30.5 22.0511 30.421 21.8603 30.2803 21.7197C30.1397 21.579 29.9489 21.5 29.75 21.5H27.5C27.3011 21.5 27.1103 21.579 26.9697 21.7197C26.829 21.8603 26.75 22.0511 26.75 22.25C26.75 22.4489 26.829 22.6397 26.9697 22.7803C27.1103 22.921 27.3011 23 27.5 23H29.75C29.9489 23 30.1397 22.921 30.2803 22.7803C30.421 22.6397 30.5 22.4489 30.5 22.25ZM30.5 29V26C30.5 25.1727 29.8273 24.5 29 24.5H28.25C28.0511 24.5 27.8603 24.579 27.7197 24.7197C27.579 24.8603 27.5 25.0511 27.5 25.25C27.5 25.4489 27.579 25.6397 27.7197 25.7803C27.8603 25.921 28.0511 26 28.25 26H29V29H26.75C26.5511 29 26.3603 29.079 26.2197 29.2197C26.079 29.3603 26 29.5511 26 29.75C26 29.9489 26.079 30.1397 26.2197 30.2803C26.3603 30.421 26.5511 30.5 26.75 30.5H29C29.8273 30.5 30.5 29.8273 30.5 29ZM24.5 29.75C24.5 29.5511 24.421 29.3603 24.2803 29.2197C24.1397 29.079 23.9489 29 23.75 29H21.5C21.3011 29 21.1103 29.079 20.9697 29.2197C20.829 29.3603 20.75 29.5511 20.75 29.75C20.75 29.9489 20.829 30.1397 20.9697 30.2803C21.1103 30.421 21.3011 30.5 21.5 30.5H23.75C23.9489 30.5 24.1397 30.421 24.2803 30.2803C24.421 30.1397 24.5 29.9489 24.5 29.75Z" fill="#2463EB"></path></svg>